<svg id="Calque_1" data-name="Calque 1" xmlns="http://www.w3.org/2000/svg" viewBox="0 0 158.2 74.22"><defs><style>.cls-1{fill:#fefefe;}.cls-2{fill:#675c48;}.cls-3{fill:#685e4a;}.cls-4{fill:#fcfcfc;}.cls-5{fill:#685d4a;}.cls-6{fill:#695e4b;}.cls-7{fill:#6b614e;}.cls-8{fill:#534835;}.cls-9{fill:#524735;}.cls-10{fill:#514634;}.cls-11{fill:#797060;}.cls-12{fill:#524835;}.cls-13{fill:#6a5f4c;}.cls-14{fill:#544937;}.cls-15{fill:#6e6451;}.cls-16{fill:#776d5c;}.cls-17{fill:#6f6553;}</style></defs><title>logoecaillefoncecopie</title><path class="cls-1" d="M848,956.25c25.95,0,51.9.11,77.84-.12,3.85,0,4.26,1.09,4.24,4.45q-.24,32.93,0,65.87c0,3-.48,3.91-3.75,3.9-30.44-.16-60.88-.09-91.32-.09-.54-5.39.12-10.55,3.13-15.18a6.12,6.12,0,0,1,4.51-2.82c4.56.52,9.61-.72,13.12,3.63a6,6,0,0,0,2.45,2,132,132,0,0,0-2.34-15.57c-2.85-15-4.45-30.24-8.09-45.11A1.51,1.51,0,0,1,848,956.25Z" transform="translate(-771.88 -956.13)"/><path class="cls-1" d="M832,1030.25c-18.62,0-37.24-.08-55.87.08-3.11,0-4.29-.21-4.25-3.93.24-22.11.18-44.23.05-66.34,0-2.94.44-3.93,3.74-3.91,23.44.18,46.89.1,70.33.1-3.42,15.3-5.5,30.84-8.5,46.21-.47,2.42-1.16,4.84-.73,7.36a6.48,6.48,0,0,1-.48,3.42c-.72,1.7-1.44,3.68-3.42,4-2.37.39-3.47-1.66-4.42-3.41-2.54-4.68-4.68-9.58-7.24-14.25a18,18,0,0,1,8-24.55c-2.71-1.32-3.16-1.24-5.55,1-6.66,6.17-8.3,16.5-3.85,25.89,3.56,7.52,7.48,14.88,11.11,22.37C831.78,1026.1,833.51,1027.92,832,1030.25Z" transform="translate(-771.88 -956.13)"/><path class="cls-2" d="M835.59,1010.43c-1.88-5.15.93-9.88,1.57-14.75,1.37-10.48,3.78-20.83,5.55-31.27a17.29,17.29,0,0,1,3.29-8.16h2c4.07,6,3.69,13.19,5,19.87,2.51,12.91,4.34,26,6.53,38.93.35,2.09,1.7,4.75-1.13,5.5-3,.81-2.58-2.71-3.65-4.33-2.35-3.06-2.48-6.8-2.94-10.36-1.23-9.39-3.06-18.66-4.83-29.14-2.07,6.6-2.54,12.41-3.67,18.08-.93,4.69-.92,9.63-3.36,14C838.8,1010.12,837.51,1011.12,835.59,1010.43Z" transform="translate(-771.88 -956.13)"/><path class="cls-3" d="M835.59,1010.43l3.38-2.09a12.55,12.55,0,0,1,10.4-2c2.1.53,3.58,1.87,3.39,4.25s-2.17,1.83-3.72,2.24c-2.15.56-4.28-.49-6.36.3-3.68,1.18-4.92,4-5.49,7.55-.52,3.22-.43,6.61-2.18,9.56h-3c-4.22-8.63-8.32-17.33-12.71-25.88-5.38-10.49-4.15-21.91,3.4-29.43,2.16-2.15,4.5-3.41,7.58-2.2a2.57,2.57,0,0,1,1.78,2.2c.07,1.09-.68,2.23-1.65,2.17-5.72-.35-7,4.22-8.75,8-2.17,4.79-1.5,9.66.89,14.32s4.75,9.51,7.12,14.27c.65,1.31,1,3.36,2.66,3.23,1.4-.11,2-2,2.58-3.37C835.33,1012.52,836.54,1011.72,835.59,1010.43Z" transform="translate(-771.88 -956.13)"/><path class="cls-4" d="M842.68,1013.14c2.1-1.42,4.44-.8,6.68-.69,1.53.07,2.51,0,2.56-1.88a2.48,2.48,0,0,0-1.86-2.86c-3.88-1.57-7.38.92-11.1.64,3-8.41,3.39-17.37,5.32-26,.68-3,.19-6.44,3.25-10.25l7.21,44.12C851.39,1012.56,846.6,1014.55,842.68,1013.14Z" transform="translate(-771.88 -956.13)"/><path class="cls-5" d="M926.92,981.5c2.3,1.62,1.43,3.06-.37,4.24a6.68,6.68,0,0,1-2.38.52c-2.2.4-5.42-1.25-6.45,1.09a12,12,0,0,0,.45,10.17c2.73,5.48,5.67,10.85,8.48,16.29a19.09,19.09,0,0,1,1.49,3.66,2.63,2.63,0,0,1-1.35,3.39,2.26,2.26,0,0,1-2.93-1.27c-4.28-9.93-12.16-18.48-11.78-30.2.05-1.65,0-2.49-1.9-3.29-2.35-1-2.8-3-.12-4.69C915.68,981.67,921.3,981.5,926.92,981.5Z" transform="translate(-771.88 -956.13)"/><path class="cls-6" d="M884,1015.23c2.59,1.72,5.48.51,8.21.81,1.52.17,3-.1,2.93,2.27,0,2.21-.91,3-3,2.79-.33,0-.67,0-1,0-14.32-.24-11.9,1.58-12-11.77-.11-11,0-22,0-33,0-1.56,0-3.11,1.79-3.66,1.45-.44,2.64-.1,3,1.63C883.34,988,883.09,1001.6,884,1015.23Z" transform="translate(-771.88 -956.13)"/><path class="cls-2" d="M897.16,974.3c.35-1.75,1.52-2.08,3-1.53,1.66.64,1.21,2.2,1.21,3.46,0,11.49.22,23-.1,34.47-.12,4.33.9,6.19,5.41,5.42a28.2,28.2,0,0,1,5,0c1.47,0,2.7.53,2.81,2.17A2.51,2.51,0,0,1,912,1021c-4.31.22-8.7.61-12.93,0-3.2-.43-2-3.59-2-5.81C897.78,1001.57,897.72,987.94,897.16,974.3Z" transform="translate(-771.88 -956.13)"/><path class="cls-6" d="M870.88,1019.21c-.21,1.81-1.39,2.09-2.86,1.7a2.5,2.5,0,0,1-2-2.57c0-11.46,0-22.93.07-34.39a2.75,2.75,0,0,1,1.94-2.66c1.53-.4,2.51.44,2.77,2A350.36,350.36,0,0,0,870.88,1019.21Z" transform="translate(-771.88 -956.13)"/><path class="cls-7" d="M915.78,981.13c.63-4.58,4.13-8.56,7.89-8.91,1.92-.18,4,0,4.34,2.28.3,2-1.39,2.81-3.22,2.9-2.43.11-3.62,1.33-3.58,3.75A5.72,5.72,0,0,1,915.78,981.13Z" transform="translate(-771.88 -956.13)"/><path class="cls-8" d="M897.16,974.3c1.34,1.4.8,3.15.81,4.75q.07,15.7,0,31.41c0,1.6.54,3.36-.84,4.74C896.74,1001.57,896.68,987.94,897.16,974.3Z" transform="translate(-771.88 -956.13)"/><path class="cls-9" d="M884,1015.23a6.55,6.55,0,0,1-.91-2.2q-.07-18.48,0-37c0-.59.5-1.18.77-1.76Z" transform="translate(-771.88 -956.13)"/><path class="cls-10" d="M870.88,1019.21c-1.64-1.88-.82-4.14-.84-6.22-.1-8.31-.07-16.62,0-24.93,0-1.6-.54-3.35.81-4.75Z" transform="translate(-771.88 -956.13)"/><path class="cls-11" d="M868.59,973.35a2.89,2.89,0,0,1-2.78-2.8,2.56,2.56,0,0,1,2.55-3c1.9-.11,3.24.94,3.17,2.91A2.89,2.89,0,0,1,868.59,973.35Z" transform="translate(-771.88 -956.13)"/><path class="cls-12" d="M915.78,981.13h5.42l5.72.36a36.8,36.8,0,0,1-16.86-.09Z" transform="translate(-771.88 -956.13)"/><path class="cls-2" d="M774.07,973.29c4.06-1.65,4.91-1.23,4.95,3,.09,10.78,0,21.55,0,32.33,0,6.42.78,7.21,7.26,7.54,1.77.09,3.55.14,3.58,2.37s-1.74,2.5-3.47,2.72c-7.25.92-10.38-1.07-12.51-8C774.17,999.95,773.85,986.62,774.07,973.29Z" transform="translate(-771.88 -956.13)"/><path class="cls-13" d="M802.49,981.15c1.54.54,4.79-1.61,4.65,2.2-.11,2.9-2.83,3.07-4.95,2.69-5.15-.91-3,2.31-2.16,4,3.86,8.12,8,16.12,11.94,24.19a16.88,16.88,0,0,1,1.59,4.16,2.49,2.49,0,0,1-1.45,2.89c-1.45.57-2.06-.48-2.61-1.59-4.64-9.51-9.57-18.89-13.85-28.56C792.75,984.56,795.17,981.38,802.49,981.15Z" transform="translate(-771.88 -956.13)"/><path class="cls-14" d="M774.07,973.29c1.07.84.92,2,.92,3.18q0,16.6,0,33.21c0,1.29.24,2.69-1.07,3.6-1.61-8.9-.51-17.87-.62-26.81C773.25,982.1,772.14,977.57,774.07,973.29Z" transform="translate(-771.88 -956.13)"/><path class="cls-15" d="M806,977.36c-1.88-.44-5.74,1-5.85-2.18-.12-3.65,3.79-2.53,6.26-2.77a5.38,5.38,0,0,1,1,0c2.13.19,5.44-1.09,5.43,2.42s-3.29,2.35-5.46,2.53C807.06,977.39,806.73,977.36,806,977.36Z" transform="translate(-771.88 -956.13)"/><path class="cls-16" d="M802.15,969.85c1.23-2.35,2.37-4.69,3.66-6.95.59-1,1.56-1.84,2.87-1.14a2.26,2.26,0,0,1,1,3.32C808.27,968.14,807.36,972,802.15,969.85Z" transform="translate(-771.88 -956.13)"/><path class="cls-17" d="M792.46,989c1.08,3.12,3.23,5.58,1.24,8.65-.81,1.25-1.75,2-3.26,1.26a2.34,2.34,0,0,1-1.35-3.26C790,993.59,791.14,991.6,792.46,989Z" transform="translate(-771.88 -956.13)"/></svg>