<?xml version="1.0" standalone="no"?>

<!DOCTYPE svg PUBLIC "-//W3C//DTD SVG 20010904//EN"

 "http://www.w3.org/TR/2001/REC-SVG-20010904/DTD/svg10.dtd">

<svg version="1.0" xmlns="http://www.w3.org/2000/svg"

 width="195.000000pt" height="77.000000pt" viewBox="0 0 195.000000 77.000000"

 preserveAspectRatio="xMidYMid meet">

<path fill="#030202" stroke="none" d="
M61 76

C59 75 59 73 59 52

L59 30

L56 32

C55 33 53 34 52 34

C50 34 48 33 47 32

L44 30

L44 47

C44 61 44 65 43 67

L41 69

L39 67

C38 66 37 64 37 45

C37 28 37 24 39 22

C41 19 44 19 47 24

C49 25 51 27 52 27

C52 27 56 23 59 18

C62 12 66 8 67 7

L68 6

L70 7

C72 9 71 11 65 20

L59 28

L60 28

C61 28 62 27 62 25

C63 23 64 22 65 21

L66 21

L66 40

L66 59

L71 53

C76 49 79 47 85 45

L87 44

L85 35

L83 27

L82 26

L80 26

L79 37

C77 45 76 48 75 49

C73 50 72 51 71 51

L70 51

L70 49

C70 45 77 6 78 3

L79 0

L81 0

C85 0 86 2 88 14

C89 20 91 29 92 34

C93 42 94 44 95 44

L97 45

L97 47

C97 48 96 49 96 50

L94 51

L95 54

L96 58

L99 51

C103 43 103 38 98 28

C96 23 94 19 94 17

C94 13 97 11 103 11

L108 11

L109 13

L109 15

L107 17

C106 17 104 18 103 18

L101 17

L101 18

C101 19 103 22 105 26

C108 32 108 35 108 40

C108 46 108 47 103 59

C97 69 96 71 94 71

L92 71

L91 68

C90 66 90 62 89 58

C88 54 88 51 88 51

L87 51

L82 53

C79 54 75 57 74 59

C70 63 66 70 66 72

C66 73 65 74 64 75

L62 77

L61 76

Z

M94 62

L96 58

L96 58

C95 58 94 60 93 62

L91 66

L91 66

C92 66 93 64 94 62

Z

M82 20

L82 18

L81 18

L81 18

L81 20

L81 22

L82 22

L83 22

L82 20

Z

M9 67

C9 66 8 64 8 63

C8 60 7 59 4 56

C0 53 0 53 0 37

L0 21

L1 21

L3 20

L4 22

C6 23 6 26 6 37

C6 47 6 50 8 51

L9 52

L9 52

C10 52 11 44 12 36

C14 27 16 19 16 18

C18 14 21 14 23 17

C24 18 26 29 28 42

C32 64 32 68 29 68

C25 68 24 62 26 58

C27 56 26 53 24 52

C23 52 22 47 21 42

L20 33

L18 40

C18 44 17 49 17 50

L16 53

L18 52

C23 51 27 54 25 58

L25 59

L20 59

L15 59

L15 62

C14 65 12 68 11 68

C11 68 10 67 9 67

Z

M122 65

C122 64 119 58 116 52

C109 38 108 33 113 24

C117 16 119 15 128 15

C132 16 136 16 137 16

C137 16 141 16 145 15

L152 15

L152 12

L153 9

L156 9

L158 9

L159 12

L159 15

L161 15

C162 15 163 14 164 14

C165 13 166 12 167 12

L168 12

L169 14

L169 15

L172 15

C174 15 176 15 176 16

L178 16

L178 19

L178 21

L176 21

C176 22 174 22 172 22

L170 22

L170 42

C170 60 170 63 168 64

L167 66

L165 65

C163 64 163 63 163 43

L163 22

L161 22

L159 22

L159 43

C159 63 159 64 157 65

L155 66

L154 64

C152 63 152 60 152 42

L153 22

L148 22

L144 22

L146 25

C146 27 147 31 148 34

C148 39 148 41 145 49

C142 59 139 62 135 61

C133 60 131 56 127 46

C124 39 125 30 127 25

C128 24 129 23 129 23

L129 22

L125 22

C121 22 121 22 118 27

C117 30 116 34 116 35

C116 37 119 43 122 50

L128 62

L126 64

C124 66 124 66 122 65

Z

M140 44

C143 37 142 32 139 26

L137 23

L135 26

C131 30 131 37 134 46

L135 51

L137 51

L138 51

L140 44

Z

M187 65

C187 64 184 58 181 52

C176 43 175 40 175 36

C175 33 174 31 173 30

C173 29 172 28 172 27

L173 25

L175 24

L178 24

L178 23

C178 23 180 21 181 19

C185 15 189 14 191 17

L192 18

L191 20

C191 21 190 21 189 22

C188 22 186 22 186 23

L185 24

L189 24

L193 24

L194 26

C195 29 193 30 187 31

L182 32

L182 36

C182 38 184 44 187 51

L193 63

L191 64

C189 66 189 66 187 65

Z

"/>

<path fill="#1b1915" stroke="none" d="
M61 76

C59 75 59 73 59 52

L59 30

L56 32

C55 33 53 34 52 34

C50 34 48 33 47 32

L44 30

L44 47

C44 61 44 65 43 67

L41 69

L39 67

C38 66 37 64 37 45

C37 28 37 24 39 22

C41 19 44 19 47 24

C49 25 51 27 52 27

C52 27 56 23 59 18

C62 12 66 8 67 7

L68 6

L70 7

C72 9 71 11 65 20

L59 28

L60 28

C61 28 62 27 62 25

C63 23 64 22 65 21

L66 21

L66 40

L66 59

L71 53

C76 49 79 47 85 45

L87 44

L85 35

L83 27

L82 26

L80 26

L79 37

C77 45 76 48 75 49

C73 50 72 51 71 51

L70 51

L70 49

C70 45 77 6 78 3

L79 0

L81 0

C85 0 86 2 88 14

C89 20 91 29 92 34

C93 42 94 44 95 44

L97 45

L97 47

C97 48 96 49 96 50

L94 51

L95 54

L96 58

L99 51

C103 43 103 38 98 28

C96 23 94 19 94 17

C94 13 97 11 103 11

L108 11

L109 13

L109 15

L107 17

C106 17 104 18 103 18

L101 17

L101 18

C101 19 103 22 105 26

C108 32 108 35 108 40

C108 46 108 47 103 59

C97 69 96 71 94 71

L92 71

L91 68

C90 66 90 62 89 58

C88 54 88 51 88 51

L87 51

L82 53

C79 54 75 57 74 59

C70 63 66 70 66 72

C66 73 65 74 64 75

L62 77

L61 76

Z

M94 62

L96 58

L96 58

C95 58 94 60 93 62

L91 66

L91 66

C92 66 93 64 94 62

Z

M82 20

L82 18

L81 18

L81 18

L81 20

L81 22

L82 22

L83 22

L82 20

Z

M9 67

C9 66 8 64 8 63

C8 60 7 59 4 56

C0 53 0 53 0 37

L0 21

L1 21

L3 20

L4 22

C6 23 6 26 6 37

C6 47 6 50 8 51

L9 52

L9 52

C10 52 11 44 12 36

C14 27 16 19 16 18

C18 14 21 14 23 17

C24 18 26 29 28 42

C32 64 32 68 29 68

C25 68 24 62 26 58

C27 56 26 53 24 52

C23 52 22 47 21 42

L20 33

L18 40

C18 44 17 49 17 50

L16 53

L18 52

C23 51 27 54 25 58

L25 59

L20 59

L15 59

L15 62

C14 65 12 68 11 68

C11 68 10 67 9 67

Z

M122 65

C122 64 119 58 116 52

C109 38 108 33 113 24

C117 16 119 15 128 15

C132 16 136 16 137 16

C137 16 141 16 145 15

L152 15

L152 12

L153 9

L156 9

L158 9

L159 12

L159 15

L161 15

C162 15 163 14 164 14

C165 13 166 12 167 12

L168 12

L169 14

L169 15

L172 15

C174 15 176 15 176 16

L178 16

L178 19

L178 21

L176 21

C176 22 174 22 172 22

L170 22

L170 42

C170 60 170 63 168 64

L167 66

L165 65

C163 64 163 63 163 43

L163 22

L161 22

L159 22

L159 43

C159 63 159 64 157 65

L155 66

L154 64

C152 63 152 60 152 42

L153 22

L148 22

L144 22

L146 25

C146 27 147 31 148 34

C148 39 148 41 145 49

C142 59 139 62 135 61

C133 60 131 56 127 46

C124 39 125 30 127 25

C128 24 129 23 129 23

L129 22

L125 22

C121 22 121 22 118 27

C117 30 116 34 116 35

C116 37 119 43 122 50

L128 62

L126 64

C124 66 124 66 122 65

Z

M140 44

C143 37 142 32 139 26

L137 23

L135 26

C131 30 131 37 134 46

L135 51

L137 51

L138 51

L140 44

Z

M187 65

C187 64 184 58 181 52

C176 43 175 40 175 36

C175 33 174 31 173 30

C173 29 172 28 172 27

L173 25

L175 24

L178 24

L178 23

C178 23 180 21 181 19

C185 15 189 14 191 17

L192 18

L191 20

C191 21 190 21 189 22

C188 22 186 22 186 23

L185 24

L189 24

L193 24

L194 26

C195 29 193 30 187 31

L182 32

L182 36

C182 38 184 44 187 51

L193 63

L191 64

C189 66 189 66 187 65

Z

"/>

<path fill="#403b32" stroke="none" d="
M61 76

C59 75 59 73 59 52

L59 30

L56 32

C55 33 53 34 52 34

C50 34 48 33 47 32

L44 30

L44 47

C44 61 44 65 43 67

L41 69

L39 67

C38 66 37 64 37 45

C37 28 37 24 39 22

C41 19 44 19 47 24

C49 25 51 27 52 27

C52 27 56 23 59 18

C62 12 66 8 67 7

L68 6

L70 7

C72 9 71 11 65 20

L59 28

L60 28

C61 28 62 27 62 25

C63 23 64 22 65 21

L66 21

L66 40

L66 59

L71 53

C76 49 79 47 85 45

L87 44

L85 35

L83 27

L82 26

L80 26

L79 37

C77 45 76 48 75 49

C73 50 72 51 71 51

L70 51

L70 49

C70 45 77 6 78 3

L79 0

L81 0

C85 0 86 2 88 14

C89 20 91 29 92 34

C93 42 94 44 95 44

L97 45

L97 47

C97 48 96 49 96 50

L94 51

L95 54

L96 58

L99 51

C103 43 103 38 98 28

C96 23 94 19 94 17

C94 13 97 11 103 11

L108 11

L109 13

L109 15

L107 17

C106 17 104 18 103 18

L101 17

L101 18

C101 19 103 22 105 26

C108 32 108 35 108 40

C108 46 108 47 103 59

C97 69 96 71 94 71

L92 71

L91 68

C90 66 90 62 89 58

C88 54 88 51 88 51

L87 51

L82 53

C79 54 75 57 74 59

C70 63 66 70 66 72

C66 73 65 74 64 75

L62 77

L61 76

Z

M94 62

L96 58

L96 58

C95 58 94 60 93 62

L91 66

L91 66

C92 66 93 64 94 62

Z

M82 20

L82 18

L81 18

L81 18

L81 20

L81 22

L82 22

L83 22

L82 20

Z

M9 67

C9 66 8 64 8 63

C8 60 7 59 4 56

C0 53 0 53 0 37

L0 21

L1 21

L3 20

L4 22

C6 23 6 26 6 37

C6 47 6 50 8 51

L9 52

L9 52

C10 52 11 44 12 36

C14 27 16 19 16 18

C18 14 21 14 23 17

C24 18 26 29 28 42

C32 64 32 68 29 68

C25 68 24 62 26 58

C27 56 26 53 24 52

C23 52 22 47 21 42

L20 33

L18 40

C18 44 17 49 17 50

L16 53

L18 52

C23 51 27 54 25 58

L25 59

L20 59

L15 59

L15 62

C14 65 12 68 11 68

C11 68 10 67 9 67

Z

M122 65

C122 64 119 58 116 52

C109 38 108 33 113 24

C117 16 119 15 128 15

C132 16 136 16 137 16

C137 16 141 16 145 15

L152 15

L152 12

L153 9

L156 9

L158 9

L159 12

L159 15

L161 15

C162 15 163 14 164 14

C165 13 166 12 167 12

L168 12

L169 14

L169 15

L172 15

C174 15 176 15 176 16

L178 16

L178 19

L178 21

L176 21

C176 22 174 22 172 22

L170 22

L170 42

C170 60 170 63 168 64

L167 66

L165 65

C163 64 163 63 163 43

L163 22

L161 22

L159 22

L159 43

C159 63 159 64 157 65

L155 66

L154 64

C152 63 152 60 152 42

L153 22

L148 22

L144 22

L146 25

C146 27 147 31 148 34

C148 39 148 41 145 49

C142 59 139 62 135 61

C133 60 131 56 127 46

C124 39 125 30 127 25

C128 24 129 23 129 23

L129 22

L125 22

C121 22 121 22 118 27

C117 30 116 34 116 35

C116 37 119 43 122 50

L128 62

L126 64

C124 66 124 66 122 65

Z

M140 44

C143 37 142 32 139 26

L137 23

L135 26

C131 30 131 37 134 46

L135 51

L137 51

L138 51

L140 44

Z

M187 65

C187 64 184 58 181 52

C176 43 175 40 175 36

C175 33 174 31 173 30

C173 29 172 28 172 27

L173 25

L175 24

L178 24

L178 23

C178 23 180 21 181 19

C185 15 189 14 191 17

L192 18

L191 20

C191 21 190 21 189 22

C188 22 186 22 186 23

L185 24

L189 24

L193 24

L194 26

C195 29 193 30 187 31

L182 32

L182 36

C182 38 184 44 187 51

L193 63

L191 64

C189 66 189 66 187 65

Z

"/>

<path fill="#5a5347" stroke="none" d="
M61 76

C59 75 59 73 59 52

L59 30

L56 32

C55 33 53 34 52 34

C50 34 48 33 47 32

L44 30

L44 47

C44 61 44 65 43 67

L41 69

L39 67

C38 66 37 64 37 45

C37 28 37 24 39 22

C41 19 44 19 47 24

C49 25 51 27 52 27

C52 27 56 23 59 18

C62 12 66 8 67 7

L68 6

L70 7

C72 9 71 11 65 20

L59 28

L60 28

C61 28 62 27 62 25

C63 23 64 22 65 21

L66 21

L66 40

L66 59

L71 53

C76 49 79 47 85 45

L87 44

L85 35

L83 27

L82 26

L80 26

L79 37

C77 45 76 48 75 49

C73 50 72 51 71 51

L70 51

L70 49

C70 45 77 6 78 3

L79 0

L81 0

C85 0 86 2 88 14

C89 20 91 29 92 34

C93 42 94 44 95 44

L97 45

L97 47

C97 48 96 49 96 50

L94 51

L95 54

L96 58

L99 51

C103 43 103 38 98 28

C96 23 94 19 94 17

C94 13 97 11 103 11

L108 11

L109 13

L109 15

L107 17

C106 17 104 18 103 18

L101 17

L101 18

C101 19 103 22 105 26

C108 32 108 35 108 40

C108 46 108 47 103 59

C97 69 96 71 94 71

L92 71

L91 68

C90 66 90 62 89 58

C88 54 88 51 88 51

L87 51

L82 53

C79 54 75 57 74 59

C70 63 66 70 66 72

C66 73 65 74 64 75

L62 77

L61 76

Z

M94 62

L96 58

L96 58

C95 58 94 60 93 62

L91 66

L91 66

C92 66 93 64 94 62

Z

M82 20

L82 18

L81 18

L81 18

L81 20

L81 22

L82 22

L83 22

L82 20

Z

M9 67

C9 66 8 64 8 63

C8 60 7 59 4 56

C0 53 0 53 0 37

L0 21

L1 21

L3 20

L4 22

C6 23 6 26 6 37

C6 47 6 50 8 51

L9 52

L9 52

C10 52 11 44 12 36

C14 27 16 19 16 18

C18 14 21 14 23 17

C24 18 26 29 28 42

C32 64 32 68 29 68

C25 68 24 62 26 58

C27 56 26 53 24 52

C23 52 22 47 21 42

L20 33

L18 40

C18 44 17 49 17 50

L16 53

L18 52

C23 51 27 54 25 58

L25 59

L20 59

L15 59

L15 62

C14 65 12 68 11 68

C11 68 10 67 9 67

Z

M122 65

C122 64 119 58 116 52

C109 38 108 33 113 24

C117 16 119 15 128 15

C132 16 136 16 137 16

C137 16 141 16 145 15

L152 15

L152 12

L153 9

L156 9

L158 9

L159 12

L159 15

L161 15

C162 15 163 14 164 14

C165 13 166 12 167 12

L168 12

L169 14

L169 15

L172 15

C174 15 176 15 176 16

L178 16

L178 19

L178 21

L176 21

C176 22 174 22 172 22

L170 22

L170 42

C170 60 170 63 168 64

L167 66

L165 65

C163 64 163 63 163 43

L163 22

L161 22

L159 22

L159 43

C159 63 159 64 157 65

L155 66

L154 64

C152 63 152 60 152 42

L153 22

L148 22

L144 22

L146 25

C146 27 147 31 148 34

C148 39 148 41 145 49

C142 59 139 62 135 61

C133 60 131 56 127 46

C124 39 125 30 127 25

C128 24 129 23 129 23

L129 22

L125 22

C121 22 121 22 118 27

C117 30 116 34 116 35

C116 37 119 43 122 50

L128 62

L126 64

C124 66 124 66 122 65

Z

M140 44

C143 37 142 32 139 26

L137 23

L135 26

C131 30 131 37 134 46

L135 51

L137 51

L138 51

L140 44

Z

M187 65

C187 64 184 58 181 52

C176 43 175 40 175 36

C175 33 174 31 173 30

C173 29 172 28 172 27

L173 25

L175 24

L178 24

L178 23

C178 23 180 21 181 19

C185 15 189 14 191 17

L192 18

L191 20

C191 21 190 21 189 22

C188 22 186 22 186 23

L185 24

L189 24

L193 24

L194 26

C195 29 193 30 187 31

L182 32

L182 36

C182 38 184 44 187 51

L193 63

L191 64

C189 66 189 66 187 65

Z

"/>

<path fill="#0000ff" stroke="none" d="
M61 76

C59 75 59 73 59 52

L59 30

L56 32

C55 33 53 34 52 34

C50 34 48 33 47 32

L44 30

L44 47

C44 61 44 65 43 67

L41 69

L39 67

C38 66 37 64 37 45

C37 28 37 24 39 22

C41 19 44 19 47 24

C49 25 51 27 52 27

C52 27 56 23 59 18

C62 12 66 8 67 7

L68 6

L70 7

C72 9 71 11 65 20

L59 28

L60 28

C61 28 62 27 63 25

C63 23 65 22 65 22

L66 22

L66 40

L66 59

L71 53

C76 49 79 47 85 45

L87 44

L85 35

L83 27

L82 26

L80 26

L79 37

C77 45 76 48 75 49

C73 50 72 51 71 51

L70 51

L70 49

C70 45 77 6 78 3

L79 0

L81 0

C85 0 86 2 88 14

C89 20 91 29 92 34

C93 42 94 44 95 44

L97 45

L97 47

C97 48 96 49 96 50

L94 51

L95 54

L96 58

L99 51

C103 43 103 38 98 28

C96 23 94 19 94 17

C94 13 97 11 103 11

L108 11

L109 13

L109 15

L107 17

C106 17 104 18 103 18

L101 17

L101 18

C101 19 103 22 105 26

C108 32 108 35 108 40

C108 46 108 47 103 59

C98 68 96 71 94 71

L92 71

L91 70

C91 69 92 66 94 63

L96 58

L95 58

C95 59 94 60 93 62

L92 65

L91 65

L90 65

L90 62

C89 61 89 58 88 55

L88 51

L86 52

C81 53 76 56 73 59

C70 63 66 70 66 72

C66 73 65 74 64 75

L62 77

L61 76

Z

M82 20

L82 18

L81 18

L81 18

L81 20

L81 22

L82 22

L83 22

L82 20

Z

M9 67

C9 66 8 64 8 63

C8 60 7 59 4 56

C0 53 0 53 0 37

L0 21

L2 21

C5 21 6 23 6 37

C6 47 6 50 8 51

L9 52

L9 52

C10 52 11 44 12 36

C14 27 16 18 17 17

C18 14 22 14 23 17

C24 18 26 29 28 42

C32 64 32 68 29 68

C25 68 24 62 26 57

L27 55

L25 53

C23 51 22 48 21 42

L20 33

L18 40

C18 44 17 49 17 50

L16 53

L18 52

C23 51 27 54 25 58

L25 59

L20 59

L15 59

L15 62

C14 65 12 68 11 68

C11 68 10 67 9 67

Z

M122 65

C122 64 119 58 116 52

C109 38 108 33 113 24

C117 16 119 15 128 15

C132 16 136 16 137 16

C137 16 141 16 145 15

L152 15

L152 12

L153 9

L156 9

L158 9

L159 12

L159 15

L161 15

C162 15 163 14 164 14

C165 13 166 12 167 12

L168 12

L169 14

L169 15

L172 15

C176 15 178 17 178 19

L178 21

L176 21

C176 22 174 22 172 22

L170 22

L170 41

C170 52 170 62 170 63

L169 65

L166 65

L164 65

L163 43

L163 22

L161 22

L159 22

L159 43

L159 65

L156 65

L153 65

L152 63

C152 62 152 52 152 41

L153 22

L148 22

L144 22

L146 25

C146 27 147 31 148 34

C148 39 148 41 145 49

C142 59 139 62 135 61

C133 60 131 56 127 46

C124 39 125 30 127 25

C128 24 129 23 129 23

L129 22

L125 22

C121 22 121 22 118 27

C117 30 116 34 116 35

C116 37 119 43 122 50

L128 62

L126 64

C124 66 124 66 122 65

Z

M140 44

C143 37 142 32 139 26

L137 23

L135 26

C131 30 131 37 134 46

L135 51

L137 51

L138 51

L140 44

Z

M187 65

C187 64 184 58 181 52

C176 43 175 40 175 36

C175 33 174 31 173 30

C173 29 172 28 172 27

L173 25

L175 24

L178 24

L178 23

C178 23 180 21 181 19

C185 15 189 14 191 17

L192 18

L191 20

C191 21 190 21 189 22

C188 22 186 22 186 23

L185 24

L189 24

L193 24

L194 26

C195 29 193 30 187 31

L182 32

L182 36

C182 38 184 43 187 50

C192 62 193 63 191 65

C189 66 188 66 187 65

Z

"/>

<path fill="#807765" stroke="none" d="
M61 76

C59 75 59 73 59 52

L59 30

L56 32

C55 33 53 34 52 34

C50 34 48 33 47 32

L44 30

L44 47

C44 61 44 65 43 67

L41 69

L39 67

C38 66 37 64 37 45

C37 28 37 24 39 22

C41 19 44 19 47 24

C49 25 51 27 52 27

C52 27 56 23 59 18

C62 12 66 8 67 7

L68 6

L70 7

C72 9 71 11 65 20

L59 28

L60 28

C61 28 62 27 63 25

C63 23 65 22 65 22

L66 22

L66 40

L66 59

L71 53

C76 49 79 47 85 45

L87 44

L85 35

L83 27

L82 26

L80 26

L79 37

C77 45 76 48 75 49

C73 50 72 51 71 51

L70 51

L70 49

C70 45 77 6 78 3

L79 0

L81 0

C85 0 86 2 88 14

C89 20 91 29 92 34

C93 42 94 44 95 44

L97 45

L97 47

C97 48 96 49 96 50

L94 51

L95 54

L96 58

L99 51

C103 43 103 38 98 28

C96 23 94 19 94 17

C94 13 97 11 103 11

L108 11

L109 13

L109 15

L107 17

C106 17 104 18 103 18

L101 17

L101 18

C101 19 103 22 105 26

C108 32 108 35 108 40

C108 46 108 47 103 59

C98 68 96 71 94 71

L92 71

L91 70

C91 69 92 66 94 63

L96 58

L95 58

C95 59 94 60 93 62

L92 65

L91 65

L90 65

L90 62

C89 61 89 58 88 55

L88 51

L86 52

C81 53 76 56 73 59

C70 63 66 70 66 72

C66 73 65 74 64 75

L62 77

L61 76

Z

M82 20

L82 18

L81 18

L81 18

L81 20

L81 22

L82 22

L83 22

L82 20

Z

M9 67

C9 66 8 64 8 63

C8 60 7 59 4 56

C0 53 0 53 0 37

L0 21

L2 21

C5 21 6 23 6 37

C6 47 6 50 8 51

L9 52

L9 52

C10 52 11 44 12 36

C14 27 16 18 17 17

C18 14 22 14 23 17

C24 18 26 29 28 42

C32 64 32 68 29 68

C25 68 24 62 26 57

L27 55

L25 53

C23 51 22 48 21 42

L20 33

L18 40

C18 44 17 49 17 50

L16 53

L18 52

C23 51 27 54 25 58

L25 59

L20 59

L15 59

L15 62

C14 65 12 68 11 68

C11 68 10 67 9 67

Z

M122 65

C122 64 119 58 116 52

C109 38 108 33 113 24

C117 16 119 15 128 15

C132 16 136 16 137 16

C137 16 141 16 145 15

L152 15

L152 12

L153 9

L156 9

L158 9

L159 12

L159 15

L161 15

C162 15 163 14 164 14

C165 13 166 12 167 12

L168 12

L169 14

L169 15

L172 15

C176 15 178 17 178 19

L178 21

L176 21

C176 22 174 22 172 22

L170 22

L170 41

C170 52 170 62 170 63

L169 65

L166 65

L164 65

L163 43

L163 22

L161 22

L159 22

L159 43

L159 65

L156 65

L153 65

L152 63

C152 62 152 52 152 41

L153 22

L148 22

L144 22

L146 25

C146 27 147 31 148 34

C148 39 148 41 145 49

C142 59 139 62 135 61

C133 60 131 56 127 46

C124 39 125 30 127 25

C128 24 129 23 129 23

L129 22

L125 22

C121 22 121 22 118 27

C117 30 116 34 116 35

C116 37 119 43 122 50

L128 62

L126 64

C124 66 124 66 122 65

Z

M140 44

C143 37 142 32 139 26

L137 23

L135 26

C131 30 131 37 134 46

L135 51

L137 51

L138 51

L140 44

Z

M187 65

C187 64 184 58 181 52

C176 43 175 40 175 36

C175 33 174 31 173 30

C173 29 172 28 172 27

L173 25

L175 24

L178 24

L178 23

C178 23 180 21 181 19

C185 15 189 14 191 17

L192 18

L191 20

C191 21 190 21 189 22

C188 22 186 22 186 23

L185 24

L189 24

L193 24

L194 26

C195 29 193 30 187 31

L182 32

L182 36

C182 38 184 43 187 50

C192 62 193 63 191 65

C189 66 188 66 187 65

Z

"/>

<path fill="#9d927c" stroke="none" d="
M61 75

C59 74 59 71 59 52

L59 30

L55 32

C51 34 51 34 48 32

L44 30

L44 47

C44 64 43 67 40 67

L38 67

L38 65

C36 62 37 26 38 24

C41 19 42 19 47 24

C49 25 51 27 52 27

C52 27 56 23 59 18

C65 8 67 7 69 7

L70 7

L70 9

C71 10 67 17 62 24

L59 28

L60 28

C60 28 62 27 63 25

L64 22

L65 23

C66 23 66 31 66 41

L66 59

L71 54

C73 51 78 48 81 47

L87 44

L87 43

C86 42 86 38 85 34

C84 28 82 25 80 26

C80 26 79 31 78 37

C77 45 76 47 74 49

L72 51

L71 50

C70 49 71 43 73 28

C75 16 78 5 78 3

L79 0

L82 0

C85 0 86 2 88 15

C93 42 93 43 95 45

L97 47

L96 49

C95 50 94 52 95 54

L95 57

L96 56

C97 56 98 54 100 51

C103 43 103 37 98 27

C96 22 94 18 94 17

C94 17 95 15 96 13

C100 10 106 10 108 13

L109 15

L107 16

C105 17 104 18 103 17

L101 17

L101 18

C101 19 103 24 105 28

C108 35 109 37 109 41

C108 46 98 68 96 70

L94 71

L92 70

L91 68

L93 63

L96 58

L95 58

C95 59 94 60 93 62

L92 65

L91 64

C90 64 90 61 89 58

C88 54 88 52 88 51

C87 50 79 54 76 57

C71 61 66 69 66 71

C66 72 65 74 64 75

L62 77

L61 75

Z

M82 20

L82 18

L81 18

L81 18

L81 20

L81 22

L82 22

L83 22

L82 20

Z

M27 66

C25 65 25 61 26 58

C27 56 27 55 25 53

C24 51 22 46 21 41

L19 33

L18 41

C17 45 17 50 16 51

L16 53

L18 52

C23 51 27 54 25 58

L25 59

L20 59

L15 59

L15 62

C14 64 13 65 12 66

L11 67

L10 66

C9 65 8 64 8 62

C8 60 7 58 4 56

C0 53 0 53 0 37

L0 21

L1 21

C2 21 3 22 4 23

C6 24 6 27 6 37

C6 47 6 50 8 51

L9 52

L9 52

C10 52 11 45 12 36

C15 20 17 15 20 15

C22 15 24 20 27 40

C31 63 32 65 30 67

L28 68

L27 66

Z

M122 64

C122 63 119 57 116 51

C109 38 109 34 112 26

C117 16 120 14 129 15

C136 16 137 16 145 15

L152 15

L152 12

L153 9

L156 9

L158 9

L159 12

L159 15

L161 15

C162 15 164 14 165 14

L167 12

L168 14

C169 14 170 15 172 15

C175 15 178 17 178 19

C178 20 175 22 172 22

L170 22

L170 42

C170 58 170 62 169 64

L167 66

L165 64

C164 63 163 61 163 43

L163 22

L161 22

L159 22

L159 43

C159 61 158 63 157 64

L155 66

L153 64

C152 62 152 58 152 42

L153 22

L148 22

L144 22

L145 24

C147 30 148 33 148 36

C148 41 142 56 139 59

L137 61

L135 60

C133 59 131 56 128 47

C124 37 124 34 128 24

L129 22

L125 22

C121 22 120 23 118 27

C115 34 115 37 122 50

C126 60 127 62 126 63

C124 65 124 65 122 64

Z

M140 45

C143 38 142 31 139 26

L137 23

L135 26

C132 28 132 30 132 35

C132 39 132 43 133 46

L135 51

L137 51

L138 51

L140 45

Z

M187 64

C187 63 184 57 181 51

C177 43 175 39 175 36

C175 34 174 31 173 29

L172 27

L173 25

C174 25 175 24 176 24

C177 24 179 22 180 20

C183 16 187 14 190 16

C191 17 191 19 191 20

L190 22

L189 22

L188 21

L186 23

L185 24

L188 24

C192 24 194 26 193 28

C193 30 191 31 185 31

L182 32

L182 36

C182 39 183 44 187 51

C191 60 192 62 191 64

C189 65 189 65 187 64

Z

"/>

<path fill="#00ffff" stroke="none" d="
M60 53

L60 30

L59 30

C58 30 57 31 56 32

C53 33 50 33 47 31

L45 30

L44 31

C43 31 43 38 43 48

C43 57 43 65 42 66

L41 67

L40 67

L38 66

L38 45

C38 33 38 24 39 23

C41 20 44 21 47 25

C49 26 51 28 52 28

C52 28 56 23 60 17

L67 7

L68 7

C71 8 70 11 65 19

C62 23 59 27 59 28

L59 29

L61 28

C61 28 63 27 64 25

L65 23

L65 40

C65 50 65 58 65 59

L66 59

L72 54

C76 50 80 48 82 47

C84 46 86 45 87 44

C87 44 87 39 86 35

C85 29 84 27 83 26

L81 25

L80 26

C80 27 78 32 78 37

C76 43 75 47 74 48

L72 50

L71 50

C71 49 78 6 79 2

C80 1 81 0 82 0

L84 0

L85 4

C86 7 90 32 92 40

L92 44

L94 45

L96 45

L96 47

L96 49

L95 49

L94 49

L94 53

C94 56 94 59 93 61

L91 64

L91 62

C90 61 90 58 90 56

C89 53 88 51 88 50

C86 49 77 54 73 59

C69 62 66 68 65 73

L64 75

L62 75

L60 75

L60 53

Z

M83 20

L82 19

L81 19

L81 19

L80 20

L80 22

L82 22

L83 22

L83 20

Z

M92 69

C92 67 93 65 99 52

C104 43 104 38 99 28

C93 16 94 12 103 12

L107 12

L108 14

L108 15

L107 16

C106 17 105 17 103 17

C100 17 100 19 104 26

C107 32 107 35 107 40

C107 46 107 48 102 58

C97 67 95 70 94 70

L92 70

L92 69

Z

M10 66

C9 66 9 64 9 62

C9 60 8 59 5 56

C0 53 0 53 0 37

L0 22

L2 22

L5 23

L5 36

C5 48 5 50 7 52

L9 53

L10 52

C10 52 12 44 13 36

C16 18 17 16 20 16

L22 16

L23 18

C24 23 31 64 30 66

L30 67

L28 67

L27 66

L26 63

C26 62 26 59 27 58

C28 56 28 55 26 53

C25 51 23 46 22 42

C21 37 20 34 19 33

L18 33

L17 43

C16 48 16 52 16 53

C16 53 18 53 20 53

C21 53 23 54 24 55

L25 56

L24 57

C24 57 22 58 19 58

L15 59

L14 62

C13 66 11 68 10 66

Z

M117 53

C110 38 109 33 114 24

C117 17 119 16 130 16

C135 16 142 16 145 16

L152 16

L153 13

L154 11

L156 11

L157 11

L158 13

L159 16

L161 16

C162 16 163 15 164 15

C165 14 166 13 167 13

L168 13

L168 14

C169 15 171 16 173 16

L177 17

L177 19

L177 21

L173 21

L170 22

L169 43

L169 64

L166 64

L164 64

L164 43

L164 22

L161 22

L159 22

L158 43

L158 64

L156 64

L154 64

L153 43

L153 22

L149 21

C144 21 144 22 145 27

C146 30 147 34 147 36

C147 42 142 57 139 59

C135 62 133 60 129 49

C126 42 126 40 126 34

C127 31 127 27 128 26

L130 23

L129 22

C128 21 126 21 124 21

C121 21 120 22 118 27

C116 30 115 34 115 35

C115 37 118 43 121 50

C126 60 127 63 126 64

C125 64 124 65 124 65

C123 65 120 60 117 53

Z

M141 45

C143 38 143 33 140 27

C138 22 137 22 134 26

C130 30 130 38 132 44

C133 45 133 48 134 49

L135 52

L137 52

C138 52 139 49 141 45

Z

M182 53

C177 43 176 40 176 36

C176 33 175 31 175 30

C174 29 173 28 173 27

L173 25

L175 25

C177 25 179 24 180 21

C183 17 187 15 189 16

L191 17

L191 18

L191 20

L188 21

L185 22

L185 23

L186 25

L189 25

L193 25

L193 27

L193 30

L188 30

C185 30 182 31 181 31

C179 33 180 38 186 50

C191 61 192 64 189 65

L188 65

L182 53

Z

"/>

<path fill="#c8ba9e" stroke="none" d="
M60 53

L60 30

L59 30

C58 30 57 31 56 32

C53 33 50 33 47 31

L45 30

L44 31

C43 31 43 38 43 48

C43 57 43 65 42 66

L41 67

L40 67

L38 66

L38 45

C38 33 38 24 39 23

C41 20 44 21 47 25

C49 26 51 28 52 28

C52 28 56 23 60 17

L67 7

L68 7

C71 8 70 11 65 19

C62 23 59 27 59 28

L59 29

L61 28

C61 28 63 27 64 25

L65 23

L65 40

C65 50 65 58 65 59

L66 59

L72 54

C76 50 80 48 82 47

C84 46 86 45 87 44

C87 44 87 39 86 35

C85 29 84 27 83 26

L81 25

L80 26

C80 27 78 32 78 37

C76 43 75 47 74 48

L72 50

L71 50

C71 49 78 6 79 2

C80 1 81 0 82 0

L84 0

L85 4

C86 7 90 32 92 40

L92 44

L94 45

L96 45

L96 47

L96 49

L95 49

L94 49

L94 53

C94 56 94 59 93 61

L91 64

L91 62

C90 61 90 58 90 56

C89 53 88 51 88 50

C86 49 77 54 73 59

C69 62 66 68 65 73

L64 75

L62 75

L60 75

L60 53

Z

M83 20

L82 19

L81 19

L81 19

L80 20

L80 22

L82 22

L83 22

L83 20

Z

M92 69

C92 67 93 65 99 52

C104 43 104 38 99 28

C93 16 94 12 103 12

L107 12

L108 14

L108 15

L107 16

C106 17 105 17 103 17

C100 17 100 19 104 26

C107 32 107 35 107 40

C107 46 107 48 102 58

C97 67 95 70 94 70

L92 70

L92 69

Z

M10 66

C9 66 9 64 9 62

C9 60 8 59 5 56

C0 53 0 53 0 37

L0 22

L2 22

L5 23

L5 36

C5 48 5 50 7 52

L9 53

L10 52

C10 52 12 44 13 36

C16 18 17 16 20 16

L22 16

L23 18

C24 23 31 64 30 66

L30 67

L28 67

L27 66

L26 63

C26 62 26 59 27 58

C28 56 28 55 26 53

C25 51 23 46 22 42

C21 37 20 34 19 33

L18 33

L17 43

C16 48 16 52 16 53

C16 53 18 53 20 53

C21 53 23 54 24 55

L25 56

L24 57

C24 57 22 58 19 58

L15 59

L14 62

C13 66 11 68 10 66

Z

M117 53

C110 38 109 33 114 24

C117 17 119 16 130 16

C135 16 142 16 145 16

L152 16

L153 13

L154 11

L156 11

L157 11

L158 13

L159 16

L161 16

C162 16 163 15 164 15

C165 14 166 13 167 13

L168 13

L168 14

C169 15 171 16 173 16

L177 17

L177 19

L177 21

L173 21

L170 22

L169 43

L169 64

L166 64

L164 64

L164 43

L164 22

L161 22

L159 22

L158 43

L158 64

L156 64

L154 64

L153 43

L153 22

L149 21

C144 21 144 22 145 27

C146 30 147 34 147 36

C147 42 142 57 139 59

C135 62 133 60 129 49

C126 42 126 40 126 34

C127 31 127 27 128 26

L130 23

L129 22

C128 21 126 21 124 21

C121 21 120 22 118 27

C116 30 115 34 115 35

C115 37 118 43 121 50

C126 60 127 63 126 64

C125 64 124 65 124 65

C123 65 120 60 117 53

Z

M141 45

C143 38 143 33 140 27

C138 22 137 22 134 26

C130 30 130 38 132 44

C133 45 133 48 134 49

L135 52

L137 52

C138 52 139 49 141 45

Z

M182 53

C177 43 176 40 176 36

C176 33 175 31 175 30

C174 29 173 28 173 27

L173 25

L175 25

C177 25 179 24 180 21

C183 17 187 15 189 16

L191 17

L191 18

L191 20

L188 21

L185 22

L185 23

L186 25

L189 25

L193 25

L193 27

L193 30

L188 30

C185 30 182 31 181 31

C179 33 180 38 186 50

C191 61 192 64 189 65

L188 65

L182 53

Z

"/>

<path fill="#dacaac" stroke="none" d="
M61 52

C61 32 61 29 62 28

L64 26

L64 43

L64 60

L65 60

C66 60 69 57 73 54

C77 50 80 48 83 47

C85 46 87 46 87 45

C88 45 87 42 85 30

C85 28 84 26 83 25

L81 24

L80 26

C79 27 78 30 78 32

C76 45 76 46 73 48

L71 50

L71 47

C73 39 76 24 77 15

C77 12 78 7 79 5

L80 0

L82 0

L83 0

L84 4

C85 7 86 12 87 16

C88 26 90 34 91 37

C92 39 92 41 92 43

L92 45

L93 45

C94 45 95 45 96 46

L96 47

L95 49

C94 49 94 52 94 54

C94 56 93 59 93 60

L91 62

L90 56

L89 50

L87 50

C84 50 75 55 72 59

C70 61 67 65 66 69

C64 72 63 75 62 75

L61 75

L61 52

Z

M83 22

C84 21 84 20 83 19

L82 17

L81 18

C80 18 80 19 80 21

L80 23

L81 23

C82 23 83 23 83 22

Z

M93 69

C93 68 95 62 98 56

C105 42 105 39 99 27

C95 19 95 18 96 15

L97 13

L102 13

L108 14

L107 15

L107 16

L104 16

L100 16

L100 18

C100 19 102 23 104 27

C109 38 109 41 105 50

C100 61 95 69 94 70

L93 70

L93 69

Z

M10 65

C9 65 9 63 9 62

C9 59 8 58 5 55

C0 52 0 52 0 37

L0 22

L1 22

C4 22 5 24 5 38

C5 51 6 53 9 53

L11 53

L13 38

C15 29 16 21 17 20

L18 17

L20 17

L22 17

L22 19

C23 22 28 49 28 52

L28 54

L26 52

C25 50 23 45 22 41

C21 36 20 32 19 32

L18 32

L17 41

C16 46 16 51 16 52

L16 54

L18 53

C19 53 21 53 22 54

L24 54

L24 56

L24 58

L19 58

L14 58

L13 62

C13 65 11 67 10 65

Z

M27 63

C26 62 27 60 27 59

L28 57

L29 58

C30 58 30 60 30 62

L30 66

L29 66

L27 66

L27 63

Z

M39 45

C39 19 40 17 47 25

L51 29

L52 28

C53 28 57 23 60 18

C67 8 68 7 70 9

L70 10

L65 18

C62 22 59 26 58 27

C55 32 51 34 47 30

L45 29

L43 30

C42 32 42 36 42 49

L42 66

L41 66

L39 66

L39 45

Z

M117 52

C110 38 110 34 113 27

C113 25 115 22 117 20

C119 17 119 17 133 17

C141 17 149 17 150 16

L153 16

L153 14

L154 12

L156 12

L158 12

L158 14

L158 16

L160 16

C161 16 163 16 164 15

L167 14

L168 15

C169 16 171 17 173 17

L176 17

L176 18

L176 20

L174 20

C174 21 172 21 170 21

L168 21

L168 43

L168 64

L167 64

L165 64

L165 62

C164 62 164 52 164 41

L164 21

L161 21

L158 21

L158 42

L158 63

L156 64

L155 64

L154 63

C153 62 153 53 153 42

L153 22

L148 21

L143 21

L143 22

C143 23 144 25 145 26

C147 30 146 42 144 48

C140 57 140 58 137 59

L134 59

L132 55

C131 53 129 49 128 45

C126 38 126 31 129 26

C129 25 130 23 130 22

L129 21

L124 21

C120 21 120 21 117 28

C113 35 113 36 121 51

C124 57 126 62 126 63

L125 64

L124 64

C123 64 120 58 117 52

Z

M141 45

C144 38 143 32 140 26

C138 21 137 21 134 24

C129 29 129 37 132 46

L134 52

L137 52

L139 52

L141 45

Z

M182 52

C177 42 176 39 176 35

C176 32 175 30 175 29

L173 28

L174 26

L174 25

L176 25

C178 25 180 23 181 21

C184 18 185 17 187 17

L190 17

L190 18

L190 20

L187 21

L184 22

L184 23

L184 25

L188 25

C190 25 192 25 193 26

L193 27

L192 28

C191 29 189 30 186 30

L181 31

L181 36

C181 39 182 43 186 51

C191 61 191 64 189 64

C188 64 185 59 182 52

Z

"/>

<path fill="#ffffff" stroke="none" d="
"/>

<path fill="#ffffff" stroke="none" d="
"/>

<path fill="#ffffff" stroke="none" d="
"/>

<path fill="#ffffff" stroke="none" d="
"/>

<path fill="#ffffff" stroke="none" d="
"/>

<path fill="#ffffff" stroke="none" d="
"/>

<path fill="#ffffff" stroke="none" d="
"/>

<path fill="#ffffff" stroke="none" d="
"/>

<path fill="#ffffff" stroke="none" d="
"/>

<path fill="#ffffff" stroke="none" d="
"/>

<path fill="#ffffff" stroke="none" d="
"/>

<path fill="#ffffff" stroke="none" d="
"/>

<path fill="#ffffff" stroke="none" d="
"/>

<path fill="#ffffff" stroke="none" d="
"/>

<path fill="#ffffff" stroke="none" d="
"/>

<path fill="#ffffff" stroke="none" d="
"/>

<path fill="#ffffff" stroke="none" d="
"/>

<path fill="#ffffff" stroke="none" d="
"/>

<path fill="#ffffff" stroke="none" d="
"/>

<path fill="#ffffff" stroke="none" d="
"/>

<path fill="#ffffff" stroke="none" d="
"/>

<path fill="#ffffff" stroke="none" d="
"/>

<path fill="#ffffff" stroke="none" d="
"/>

<path fill="#ffffff" stroke="none" d="
"/>

<path fill="#ffffff" stroke="none" d="
"/>

<path fill="#ffffff" stroke="none" d="
"/>

<path fill="#ffffff" stroke="none" d="
"/>

<path fill="#ffffff" stroke="none" d="
"/>

<path fill="#ffffff" stroke="none" d="
"/>

<path fill="#ffffff" stroke="none" d="
"/>

<path fill="#ffffff" stroke="none" d="
"/>

<path fill="#ffffff" stroke="none" d="
"/>

<path fill="#ffffff" stroke="none" d="
"/>

<path fill="#ffffff" stroke="none" d="
"/>

<path fill="#ffffff" stroke="none" d="
"/>

<path fill="#ffffff" stroke="none" d="
"/>

<path fill="#ffffff" stroke="none" d="
"/>

<path fill="#ffffff" stroke="none" d="
"/>

<path fill="#ffffff" stroke="none" d="
"/>

<path fill="#ffffff" stroke="none" d="
"/>

<path fill="#ffffff" stroke="none" d="
"/>

<path fill="#ffffff" stroke="none" d="
"/>

<path fill="#ffffff" stroke="none" d="
"/>

<path fill="#ffffff" stroke="none" d="
"/>

<path fill="#ffffff" stroke="none" d="
"/>

<path fill="#ffffff" stroke="none" d="
"/>

<path fill="#ffffff" stroke="none" d="
"/>

<path fill="#ffffff" stroke="none" d="
"/>

<path fill="#ffffff" stroke="none" d="
"/>

<path fill="#ffffff" stroke="none" d="
"/>

<path fill="#ffffff" stroke="none" d="
"/>

<path fill="#ffffff" stroke="none" d="
"/>

<path fill="#ffffff" stroke="none" d="
"/>

<path fill="#ffffff" stroke="none" d="
"/>

</svg>

